<svg id="图层_1" data-name="图层 1" xmlns="http://www.w3.org/2000/svg" viewBox="0 0 418.49 64.4"><defs><style>.cls-1{fill:#34e0a1;}.cls-2,.cls-3{fill:#000a12;}.cls-2{opacity:0.5;isolation:isolate;}</style></defs><title>01-Brand Logo-1</title><path class="cls-1" d="M74.3,42.2A32.15,32.15,0,1,1,42.2,10,32.18,32.18,0,0,1,74.3,42.2" transform="translate(-10 -10)"/><path d="M62,35.8l3.8-4.2H57.2a26.36,26.36,0,0,0-15-4.6,26.92,26.92,0,0,0-15.1,4.6H18.5l3.8,4.2a11.61,11.61,0,0,0-3.8,8.8,11.82,11.82,0,0,0,19.8,8.7l3.8,4.1,3.8-4.1a11.44,11.44,0,0,0,8,3.1A11.82,11.82,0,0,0,65.7,44.6,11.69,11.69,0,0,0,62,35.8M30.4,52.5a8,8,0,1,1,8-8,8.09,8.09,0,0,1-8,8m11.8-8.2c0-5.3-3.8-9.8-8.8-11.7a22,22,0,0,1,8.8-1.8A21.31,21.31,0,0,1,51,32.6c-5,2-8.8,6.4-8.8,11.7M54,52.5a8,8,0,1,1,8-8,8,8,0,0,1-8,8m0-12.1a4.2,4.2,0,1,0,4.2,4.2A4.23,4.23,0,0,0,54,40.4M34.6,44.6a4.2,4.2,0,1,1-4.2-4.2,4.23,4.23,0,0,1,4.2,4.2" transform="translate(-10 -10)"/><path class="cls-2" d="M320.8,29.5a3.91,3.91,0,0,1,1.1,2.9,3.85,3.85,0,0,1-1.2,2.9,4.1,4.1,0,0,1-5.8-5.8,3.78,3.78,0,0,1,2.8-1.2A4.14,4.14,0,0,1,320.8,29.5Zm-5.3.5a3.25,3.25,0,0,0-1,2.4,2.9,2.9,0,0,0,1,2.3,3.1,3.1,0,0,0,2.4,1,3.25,3.25,0,0,0,2.4-1,3.49,3.49,0,0,0,1-2.4,3.58,3.58,0,0,0-.9-2.4,3.25,3.25,0,0,0-2.4-1A3.88,3.88,0,0,0,315.5,30Zm2.4.1c1.3,0,1.9.5,1.9,1.3a1.27,1.27,0,0,1-1,1.2l1,2h-1.4l-.8-1.8h-.4v1.8H316V30.1Zm-.6,1.9h.4c.5,0,.8-.2.8-.6s-.3-.6-.9-.6h-.4V32Z" transform="translate(-10 -10)"/><path class="cls-3" d="M361.3,32.2h-4.7V29a1.08,1.08,0,0,0-.9-.8h0a1.09,1.09,0,0,0-.8.8v3.1h-5.5v-3a.8.8,0,0,0-.9-.9c-.4,0-.8.2-.9.9v3h-4.2a1.08,1.08,0,0,0-.8.9c0,.3.1.7.8.7h4.1v2.9a1.06,1.06,0,0,0,.9.9h0c.7-.1.9-.5.9-.9V33.7h5.5v3a1,1,0,0,0,.8.8h0a1,1,0,0,0,.9-.8v-3h4.7c.5,0,.7-.2.7-.7C362,32.3,361.6,32.2,361.3,32.2Z" transform="translate(-10 -10)"/><path class="cls-3" d="M359.3,38.7h-14a1.18,1.18,0,0,0-1.1,1.1V53.7c.1.7.5,1.1,1.1,1.1h14a1.18,1.18,0,0,0,1-1.1V39.8A1.18,1.18,0,0,0,359.3,38.7Zm-13.4,7.1V40.7c0-.4.2-.5.4-.5h5v5.5l-5.4.1Zm0,7.1V47.4h5.3v5.9h-5C346.1,53.3,345.9,53.2,345.9,52.9Zm7.1-7.1V40.3h5.3c.2,0,.4.1.4.5v5.1l-5.7-.1Zm0,7.5V47.4h5.6v5.5a.37.37,0,0,1-.4.4Z" transform="translate(-10 -10)"/><path class="cls-3" d="M342.1,29.7a.94.94,0,0,0-1.2.2c-.1.1-.2.3-.4.5a23.15,23.15,0,0,1-2,2.9,24.56,24.56,0,0,0-2.9-3.9.75.75,0,0,0-1.2,0c-.2.1-.3.3-.4.4a.73.73,0,0,0,.2.6,16.63,16.63,0,0,1,2.9,4.2,17.55,17.55,0,0,1-3,2.4c-.2.1-.3.3-.4.4a1.34,1.34,0,0,0,.2.8.9.9,0,0,0,1.2.1,31.75,31.75,0,0,0,2.7-2.1,30.69,30.69,0,0,1,1,4.3,16.2,16.2,0,0,1-4.8,5.2.86.86,0,0,0-.3.6,1.42,1.42,0,0,0,.2.6c.3.4.7.5,1.3.2a17.48,17.48,0,0,0,4-4.2c.1,1.8.1,3.9.1,6.3q.15,3.15-.9,4.2a1.82,1.82,0,0,1-1.4.6h-2.3a1.49,1.49,0,0,0-.7.3,1.27,1.27,0,0,0-.1.6c.2.6.5.9,1,.9a11.48,11.48,0,0,0,1.8-.1,3.36,3.36,0,0,0,2.8-1c1-1,1.4-2.9,1.4-5.6.1-6.6-.5-11.4-1.7-14.3a29.09,29.09,0,0,0,3-4.1c.1-.3.2-.5.1-.7C342.4,29.9,342.3,29.7,342.1,29.7Z" transform="translate(-10 -10)"/><path class="cls-3" d="M393.7,41.7H386V38.1h4.2a1.09,1.09,0,0,0,.8-.8h0a1,1,0,0,0-.8-.8H380.1a1,1,0,0,0-.8.8h0a1,1,0,0,0,.8.8h4.1v3.6h-8.1c-.7,0-.8.4-.8.7a1,1,0,0,0,.8.9h8.1V49c0,.4,0,.8-.3,1a1.46,1.46,0,0,1-1.2.4h-2.2a.6.6,0,0,0-.6.3.75.75,0,0,0-.1.5,1.3,1.3,0,0,0,1,.9h1.9a3.67,3.67,0,0,0,2.6-.9,2.88,2.88,0,0,0,.6-1.9v-6h7.7a1.08,1.08,0,0,0,.8-.9C394.5,42.1,394.3,41.7,393.7,41.7Z" transform="translate(-10 -10)"/><path class="cls-3" d="M390.3,44.9a.92.92,0,0,0-1.2-.1A.74.74,0,0,0,389,46a17.47,17.47,0,0,1,1.9,2.2c.8,1,1.5,1.7,1.8,2.2a.86.86,0,0,0,.6.3,1.42,1.42,0,0,0,.6-.2h0a.86.86,0,0,0,.1-1.3A50.69,50.69,0,0,0,390.3,44.9Z" transform="translate(-10 -10)"/><path class="cls-3" d="M375.4,37.9a1.22,1.22,0,0,0,.9.4h.2a31.53,31.53,0,0,0,8.4-7.1c.3-.3.5-.3.7,0a19,19,0,0,0,8.3,6.8,1.08,1.08,0,0,0,1.4-.2h0a1,1,0,0,0-.3-1.3,19.11,19.11,0,0,1-8.3-6.6c-.6-.8-1.1-1.2-1.6-1.2s-.9.4-1.3,1.1a26.28,26.28,0,0,1-8.3,7.1c-.4-.1-.4.3-.1,1Z" transform="translate(-10 -10)"/><path class="cls-3" d="M372.9,34.5h0a1.2,1.2,0,0,0,.8.4,1.42,1.42,0,0,0,.6-.2.86.86,0,0,0,.1-1.3c-.7-.9-1.7-2.1-3.2-3.8a1,1,0,0,0-1.3-.1c-.2.2-.3.4-.4.5a1.42,1.42,0,0,0,.2.6A27.45,27.45,0,0,1,372.9,34.5Z" transform="translate(-10 -10)"/><path class="cls-3" d="M375.4,50.5h0a2.54,2.54,0,0,0,.7.2,1.42,1.42,0,0,0,.6-.2,36.05,36.05,0,0,0,4-4.5c.2-.3.3-.5.2-.7s-.2-.3-.4-.4a1,1,0,0,0-1.3.1,38.79,38.79,0,0,1-3.9,4.2h0a1.23,1.23,0,0,0,.1,1.3Z" transform="translate(-10 -10)"/><path class="cls-3" d="M394.8,53.9c-7.3,0-12.2,0-14.7-.1-3.1-.1-5.5-1.1-7.1-3.1v-11a1.18,1.18,0,0,0-1.1-1.1h-3.5a.94.94,0,0,0-.9.9h0a1.08,1.08,0,0,0,.9.8h2.4a.37.37,0,0,1,.4.4v9.7a8.84,8.84,0,0,1-1.4,1.4q-1.5,1.8-2.1,2.4a1.24,1.24,0,0,0,.1,1.3h0a1.42,1.42,0,0,0,.6.2.91.91,0,0,0,.7-.3c.6-.8,1.5-2,2.6-3.3.2-.1.3-.1.4,0,1.6,2.2,4.2,3.3,7.7,3.4h5.4c4.4.1,7.3.1,9.1.1a1.13,1.13,0,0,0,1.2-.7h0a1.27,1.27,0,0,0-.1-.6C395.4,54,395.1,53.9,394.8,53.9Z" transform="translate(-10 -10)"/><path class="cls-3" d="M427.8,41.8h-5.6V40.5h5c.5-.1.5-.4.5-.6a.53.53,0,0,0-.6-.6h-5V38h5c.5-.1.5-.4.5-.6a.53.53,0,0,0-.6-.6h-5V35.5h5.5c.2,0,.6-.1.6-.7a.53.53,0,0,0-.6-.6h-5.3a2.54,2.54,0,0,0-.2-.7,3.27,3.27,0,0,0-.2-.8.83.83,0,0,0-1-.5h0c-.4.3-.6.6-.5,1h0a10.37,10.37,0,0,1,.4,1h-5.1a.76.76,0,0,0,.2-.4c.1-.2.1-.4.2-.4h0a.8.8,0,0,0-.4-.9c-.4-.3-.8-.1-1.1.5a21.63,21.63,0,0,1-3.9,5.5.67.67,0,0,0,0,1h0c.3.3.7.2,1.1-.1.5-.5,1.1-1.1,1.6-1.7V43c0,.3.1.7.8.7a.71.71,0,0,0,.8-.7v-.2h12.8a.6.6,0,0,0,.5-.6C428.3,42,428.1,41.8,427.8,41.8Zm-7.2-1.3v1.3H415V40.5Zm0-2.4v1.3H415V38.1Zm0-2.4V37H415V35.7Z" transform="translate(-10 -10)"/><path class="cls-3" d="M418.1,47.8a.1.1,0,0,1-.1-.1h0c-1.5-.6-2.5-1-3.1-1.3-.3-.2-.6-.1-.9.2h0a.67.67,0,0,0,.3.8,33.72,33.72,0,0,0,3.2,1.4.76.76,0,0,0,.4.1.72.72,0,0,0,.6-.4h0c.1-.2,0-.5-.4-.7Z" transform="translate(-10 -10)"/><path class="cls-3" d="M427.9,31H417.4a1.76,1.76,0,0,0-.1-.6,11.2,11.2,0,0,0-.4-1.6.94.94,0,0,0-.8-.6h-.2a.6.6,0,0,0-.6.3,1.27,1.27,0,0,0-.1.6c.1.5.3,1.1.4,1.9H404.8a1,1,0,0,0-1.1,1v8.4a64.88,64.88,0,0,1-.5,9.1,13.83,13.83,0,0,1-2.1,5.4,1.24,1.24,0,0,0,.1,1.3h0a1.09,1.09,0,0,0,.5.1,1,1,0,0,0,.8-.4,18.88,18.88,0,0,0,2.2-6,53,53,0,0,0,.6-9.2V32.8c.1-.3.2-.5.4-.5h22a.63.63,0,0,0,.7-.7C428.6,31.4,428.5,31,427.9,31Z" transform="translate(-10 -10)"/><path class="cls-3" d="M427,49.5H410.8a.78.78,0,0,1-.4-.4V46.3c.1-.4.3-.4.4-.4h12.8c.1,0,.2.1.3.2v.4a.84.84,0,0,1-.2.7c-.1.2-.4.2-.8.2h-3.1c-.4.1-.5.3-.4.7s.3.4.8.5h2.9c1.5.1,2.4-.6,2.5-1.9l.1-.9a.9.9,0,0,0-1-1h-7.9l.2-.5a.45.45,0,0,0,0-.5,1,1,0,0,0-.5-.4.87.87,0,0,0-.9.4h0v.1l-.4,1H410a1,1,0,0,0-1.1,1v4A1.18,1.18,0,0,0,410,51h16.1a.37.37,0,0,1,.4.4,3.22,3.22,0,0,1-.1.8,2.2,2.2,0,0,1-.1.8h0a2,2,0,0,1-.4,1.4,2.17,2.17,0,0,1-1.6.5h-.5c-1.7,0-3.1,0-3.9-.1h0a.62.62,0,0,0-.5.8c.2.5.4.8.8.8a20.34,20.34,0,0,0,2.2-.1h2c2.2,0,3.5-1,3.6-2.9a7.17,7.17,0,0,1,.1-1.3,4.12,4.12,0,0,1,.1-1.2h0C427.9,50,427.6,49.6,427,49.5Z" transform="translate(-10 -10)"/><path class="cls-3" d="M423.4,53.4c.5-.1.7-.4.7-.7h0c-.1-.3-.3-.4-.7-.5H405.9c-.3.1-.6.3-.6.5h0c0,.3.1.6.7.7Z" transform="translate(-10 -10)"/><path class="cls-3" d="M407.1,39.7c.5-.5,1-1.1,1.5-1.7v5.1a1,1,0,0,0,.8.8h0a1,1,0,0,0,.8-.8V35.9c.6-.8,1.1-1.7,1.6-2.5a.61.61,0,0,0-.4-.9.87.87,0,0,0-1.1.4,19.31,19.31,0,0,1-4.5,5.8.67.67,0,0,0,0,1h0A1,1,0,0,0,407.1,39.7Z" transform="translate(-10 -10)"/><path d="M310,31.6h-3.1a4.46,4.46,0,0,0-4.7,4V31.5H296V55.4h6.2V41.2c0-2.6,1.7-3.9,4.3-3.9h3.6Z" transform="translate(-10 -10)"/><path d="M281,31.1a12.3,12.3,0,1,0,12.3,12.3h0A12.36,12.36,0,0,0,281,31.1Zm0,19.1a6.7,6.7,0,1,1,6.7-6.7h0a6.7,6.7,0,0,1-6.7,6.7Z" transform="translate(-10 -10)"/><path d="M261,41.4l-3.6-1c-2.4-.6-3.3-1.3-3.3-2.6s1.3-2.1,3.1-2.1a2.85,2.85,0,0,1,3.1,2.6v.1H266v-.1c0-4.3-3.5-7.2-8.8-7.2s-9,2.9-9,6.9c0,3.1,2.1,5.5,5.7,6.4l3.4.9c2.6.7,3.6,1.5,3.6,3s-1.4,2.5-3.5,2.5a3.31,3.31,0,0,1-3.6-3.4v-.1h-6v.1c0,4.9,3.9,8.3,9.6,8.3,5.4,0,9.4-3.3,9.4-8C266.8,45.6,265.8,42.7,261,41.4Z" transform="translate(-10 -10)"/><rect x="229" y="21.5" width="6.1" height="23.9"/><path d="M242,22.1a3.71,3.71,0,0,0-3.7,3.8,3.75,3.75,0,1,0,7.5.1v-.1A3.8,3.8,0,0,0,242,22.1Z" transform="translate(-10 -10)"/><polygon points="214.5 38.9 209 21.5 202.6 21.5 210.8 45.4 218.2 45.4 226.4 21.5 220 21.5 214.5 38.9"/><path d="M204.3,33.6a11.77,11.77,0,0,0-7.2-2.4,12.3,12.3,0,1,0,0,24.6h0a11.56,11.56,0,0,0,7.2-2.4v2h6.1V23h-6.1Zm-6.7,16.6a6.7,6.7,0,1,1,6.7-6.7h0A6.7,6.7,0,0,1,197.6,50.2Z" transform="translate(-10 -10)"/><path d="M176,33.6a11.77,11.77,0,0,0-7.2-2.4,12.3,12.3,0,0,0,0,24.6,11.56,11.56,0,0,0,7.2-2.4v2h6.1V31.5H176Zm0,9.9a6.7,6.7,0,1,1-6.7-6.7,6.7,6.7,0,0,1,6.7,6.7Z" transform="translate(-10 -10)"/><path d="M141.9,31.1a11.56,11.56,0,0,0-7.2,2.4v-2h-6.1V62.4h6.1v-9a11.77,11.77,0,0,0,7.2,2.4,12.35,12.35,0,0,0,0-24.7Zm-.6,19.1a6.7,6.7,0,1,1,6.7-6.7h0a6.7,6.7,0,0,1-6.7,6.7Z" transform="translate(-10 -10)"/><rect x="108.8" y="21.5" width="6.1" height="23.9"/><path d="M121.9,22.1a3.75,3.75,0,1,0,3.7,3.8A3.71,3.71,0,0,0,121.9,22.1Z" transform="translate(-10 -10)"/><path d="M108.5,35.6v-4h-6.2V55.5h6.2V41.1c0-2.6,1.7-3.9,4.3-3.9h3.4V31.5h-2.9A4.56,4.56,0,0,0,108.5,35.6Z" transform="translate(-10 -10)"/><polygon points="95.3 13 71.8 13 71.8 18.5 80.5 18.5 80.5 45.4 86.6 45.4 86.6 18.5 95.3 18.5 95.3 13"/></svg>